<?xml version="1.0" encoding="UTF-8" standalone="no"?>
<!-- Created with Inkscape (http://www.inkscape.org/) -->

<svg
   version="1.1"
   id="svg1"
   width="150"
   height="150"
   viewBox="0 0 150 150"
   sodipodi:docname="coin.svg"
   inkscape:export-filename="v1008-33.eps.png"
   inkscape:export-xdpi="75"
   inkscape:export-ydpi="75"
   inkscape:version="1.3.2 (091e20ef0f, 2023-11-25)"
   xmlns:inkscape="http://www.inkscape.org/namespaces/inkscape"
   xmlns:sodipodi="http://sodipodi.sourceforge.net/DTD/sodipodi-0.dtd"
   xmlns="http://www.w3.org/2000/svg"
   xmlns:svg="http://www.w3.org/2000/svg">
  <defs
     id="defs1" />
  <sodipodi:namedview
     id="namedview1"
     pagecolor="#ffffff"
     bordercolor="#000000"
     borderopacity="0.25"
     inkscape:showpageshadow="2"
     inkscape:pageopacity="0.0"
     inkscape:pagecheckerboard="0"
     inkscape:deskcolor="#d1d1d1"
     inkscape:zoom="2.3913835"
     inkscape:cx="97.642221"
     inkscape:cy="96.178633"
     inkscape:window-width="2560"
     inkscape:window-height="1296"
     inkscape:window-x="0"
     inkscape:window-y="0"
     inkscape:window-maximized="1"
     inkscape:current-layer="g1">
    <inkscape:page
       x="0"
       y="0"
       inkscape:label="1"
       id="page1"
       width="150"
       height="150"
       margin="0"
       bleed="0" />
  </sodipodi:namedview>
  <g
     id="g1"
     inkscape:groupmode="layer"
     inkscape:label="1">
    <g
       id="g30"
       transform="matrix(0.28210195,0,0,0.28210195,-40.607633,-40.701681)">
      <path
         id="path3"
         d="m 409.80799,187.8667 c -122.564,0 -222.27866,99.712 -222.27866,222.276 0,122.56399 99.71466,222.27866 222.27866,222.27866 122.56533,0 222.27866,-99.71467 222.27866,-222.27866 0,-122.564 -99.71333,-222.276 -222.27866,-222.276"
         style="fill:#e9b522;fill-opacity:1;fill-rule:nonzero;stroke:none;stroke-width:0.133333" />
      <path
         id="path4"
         d="m 409.80799,187.8667 c -122.564,0 -222.27866,99.712 -222.27866,222.276 0,122.56399 99.71466,222.27866 222.27866,222.27866 122.56533,0 222.27866,-99.71467 222.27866,-222.27866 0,-122.564 -99.71333,-222.276 -222.27866,-222.276 z m 0,488.13732 c -146.596,0 -265.86133,-119.26533 -265.86133,-265.86132 0,-146.596 119.26533,-265.86266 265.86133,-265.86266 146.596,0 265.86133,119.26666 265.86133,265.86266 0,146.59599 -119.26533,265.86132 -265.86133,265.86132"
         style="fill:#f7de61;fill-opacity:1;fill-rule:nonzero;stroke:none;stroke-width:0.133333" />
      <path
         id="path5"
         d="m 451.66799,486.00403 c 4.52533,-5.04267 6.79333,-11.58134 6.79333,-19.60933 0,-6.37867 -2.268,-11.52534 -6.79333,-15.43867 -4.53067,-3.908 -11.11733,-7.204 -19.76267,-9.884 v 55.276 c 8.64534,-1.856 15.232,-5.3 19.76267,-10.344 z M 383.73466,385.95336 c 4.94,4.43067 11.936,8.184 20.996,11.272 v -59.59733 c -8.85334,1.856 -15.80134,5.46 -20.84134,10.808 -5.048,5.35733 -7.56533,12.04533 -7.56533,20.07333 0,7.20934 2.47067,13.02 7.41067,17.444 z m 97.11333,121.352 c -11.632,11.42667 -27.22533,18.584 -46.78133,21.46133 v 34.28 h -31.496 v -33.66133 c -13.79334,-1.03067 -26.60934,-3.70133 -38.444,-8.028 -11.84134,-4.32133 -22.18534,-10.18933 -31.03333,-17.6 l 13.58666,-29.02533 c 17.908,14 37.25867,21.72 58.05067,23.15733 v -64.228 c -13.792,-3.496 -25.42667,-7.35733 -34.89334,-11.576 -9.46933,-4.21866 -17.39733,-10.504 -23.776,-18.83733 -6.38133,-8.33733 -9.57066,-19.196 -9.57066,-32.57733 0,-11.11734 2.77733,-21.256 8.336,-30.41867 5.55866,-9.15733 13.32666,-16.77333 23.31466,-22.848 9.98267,-6.06933 21.46134,-9.93066 34.42934,-11.58133 v -34.27467 h 31.496 v 33.96534 c 11.936,1.444 23.16,4.32666 33.65866,8.648 10.49733,4.32533 19.34667,9.78133 26.55467,16.36533 l -13.58667,29.02666 c -15.028,-12.34933 -31.29466,-19.76 -48.788,-22.23466 v 67.008 c 13.788,3.50533 25.216,7.25466 34.27467,11.272 9.05866,4.01066 16.67466,10.03466 22.85066,18.06266 6.176,8.02934 9.264,18.528 9.264,31.496 0,16.676 -5.81866,30.72667 -17.44666,42.148"
         style="fill:#ce9811;fill-opacity:1;fill-rule:nonzero;stroke:none;stroke-width:0.133333" />
      <path
         id="path6"
         d="m 160.16,410.1427 c 0,-143.88933 114.89466,-261.42266 257.75466,-265.72933 -2.69334,-0.08 -5.39334,-0.13333 -8.10667,-0.13333 -146.596,0 -265.86133,119.26666 -265.86133,265.86266 0,146.59599 119.26533,265.86132 265.86133,265.86132 2.71333,0 5.41333,-0.0533 8.10667,-0.13466 C 275.05466,671.56802 160.16,554.02536 160.16,410.1427"
         style="fill:#fff2bd;fill-opacity:1;fill-rule:nonzero;stroke:none;stroke-width:0.133333" />
      <path
         id="path7"
         d="m 409.80799,187.8667 c -2.37467,0 -4.73867,0.0533 -7.096,0.12 119.292,3.76 215.18133,101.96667 215.18133,222.156 0,120.18933 -95.88933,218.39199 -215.18133,222.15466 2.35733,0.0733 4.72133,0.124 7.096,0.124 122.56533,0 222.27866,-99.71467 222.27866,-222.27866 0,-122.564 -99.71333,-222.276 -222.27866,-222.276"
         style="fill:#ce9811;fill-opacity:1;fill-rule:nonzero;stroke:none;stroke-width:0.133333" />
      <path
         id="path8"
         d="m 474.96265,500.15069 c -11.63199,11.42667 -27.22533,18.584 -46.78133,21.46134 v 34.28 h -31.496 v -33.66134 c -13.79333,-1.03066 -26.60933,-3.70266 -38.444,-8.028 -11.84133,-4.32133 -22.18533,-10.18933 -31.03333,-17.59866 l 13.58667,-29.02534 c 17.908,13.99867 37.25866,21.71867 58.05066,23.15734 V 426.5067 c -13.792,-3.496 -25.42533,-7.35867 -34.89333,-11.576 -9.46933,-4.21734 -17.39733,-10.504 -23.776,-18.83734 -6.38133,-8.33733 -9.57066,-19.19733 -9.57066,-32.57733 0,-11.11733 2.77733,-21.25467 8.33599,-30.41866 5.55867,-9.15734 13.32667,-16.77334 23.31467,-22.848 9.98267,-6.06934 21.46133,-9.93067 34.42933,-11.58134 V 264.3867 h 31.496 v 33.972 c 11.936,1.444 23.16,4.32667 33.65867,8.648 10.49733,4.32667 19.34666,9.78133 26.55466,16.36667 l -13.58666,29.02533 c -15.02933,-12.34934 -31.29467,-19.76 -48.788,-22.23467 v 67.008 c 13.788,3.50667 25.216,7.25467 34.276,11.272 9.05733,4.012 16.67333,10.03467 22.84933,18.06267 6.176,8.028 9.264,18.52666 9.264,31.496 0,16.67599 -5.81867,30.72666 -17.44667,42.14799 z m -29.17999,-21.30133 c 4.524,-5.04267 6.79333,-11.58133 6.79333,-19.60933 0,-6.37867 -2.26933,-11.524 -6.79333,-15.43867 -4.53067,-3.908 -11.11734,-7.204 -19.76267,-9.88533 v 55.27733 c 8.64533,-1.856 15.232,-5.30133 19.76267,-10.344 z M 377.84932,378.80003 c 4.94,4.428 11.93734,8.18267 20.996,11.272 v -59.59866 c -8.85333,1.856 -15.80133,5.46133 -20.84133,10.80799 -5.048,5.35734 -7.564,12.04534 -7.564,20.07467 0,7.208 2.46933,13.01867 7.40933,17.444"
         style="fill:#f7de61;fill-opacity:1;fill-rule:nonzero;stroke:none;stroke-width:0.133333" />
    </g>
  </g>
</svg>
