<?xml version="1.0" encoding="UTF-8"?>
<svg xmlns="http://www.w3.org/2000/svg" width="204" height="204" viewBox="0 0 204 204" fill="none">
  <style>
    path { fill: black }
    rect { fill: white }
    @media (prefers-color-scheme: dark) {
      path { fill: white }
      rect { fill: black }
    }
  </style>
  <g>
    <path class="st1" d="M204.6,121.7c0-1.6-0.4-2.1-2.1-2.1c-29.9,0-59.9,0-89.9,0l0,0c-10.3,0-20.7-0.1-31-0.1
			c-1.3,0-1.7,0.5-1.8,1.8c-0.2,6.2,1,12.1,4.8,17c2.7,3.5,6.1,5.9,10.9,5.9c0.1,0,0.1,0,0.2,0c17.9-0.2,35.9-0.1,53.8-0.2
			c7.4,0,14.9-0.1,22.3-0.1c0.1,0,0.2,0,0.3,0c10.1,0,20.2-0.1,30.3,0c1.8,0,2.2-0.5,2.2-2.2C204.5,135,204.6,128.3,204.6,121.7z
			 M95.8,140.2l-0.1,0c-3.1,0-5.5-1.3-7.8-4.3c-2.5-3.3-3.8-7.3-4-12.4c8.2,0,16.4,0.1,24.6,0.1c0.1,6.5,1.8,11.9,5.2,16.5
			C107.7,140.1,101.7,140.1,95.8,140.2z"/>
    <path class="st1" d="M169.4,83.9c0.8,0,1.5-0.1,2.3-0.1l0,0c10.2,0,20.5-0.1,30.7,0c1.7,0,2.2-0.4,2.2-2.2
			c-0.1-6.7-0.1-13.5,0-20.2c0-1.9-0.6-2.3-2.4-2.3c-10,0.1-20,0-30,0l0,0c-0.9,0-1.7-0.1-2.5-0.1c-14.5,0-29,0-43.5,0
			c-7.2,0-14.5,0-21.7,0c-24.4,0-48.8,0-73.1-0.1c-9.5,0-19.1,0-28.7,0c0,0,0,0,0,0c-0.3,0-0.7-0.1-1.1-0.1c-0.5,0-0.8,0.2-0.8,1
			c0.1,2.5-0.4,4.9,0.3,7.4c1.5,4.8,4.3,8.5,8.4,11.3c5.8,3.9,12.4,5.5,19.2,5.5c2.5,0,5,0,7.6,0c8.2,0,16.4-0.1,24.6-0.1
			C97.1,83.9,133.3,83.9,169.4,83.9z M169.2,83.7c0.8,0,1.7,0.1,2.5,0.1C170.9,83.7,170.1,83.7,169.2,83.7z M169.8,59.2
			c0.8,0,1.7-0.1,2.5-0.1C171.4,59.1,170.6,59.2,169.8,59.2z M36.3,80.1c-2.7,0-5.2,0-7.5,0c-6.8-0.1-12.4-1.7-17.1-4.9
			c-3.4-2.3-5.6-5.3-6.8-9.2c-0.3-0.9-0.3-1.9-0.2-3c8.1,0,16.2,0,24.2,0c0,6.9,4,13,9,17.2C37.3,80.1,36.8,80.1,36.3,80.1z"/>
    <path class="st1" d="M119.8,114.2c17,0,34,0,51.1,0c0.5,0,0.9-0.1,1.4-0.1c0,0,0,0,0,0c10,0,20-0.1,30,0c2,0,2.4-0.6,2.4-2.5
			c-0.1-5.6-0.1-11.2-0.1-16.8c0-5.5,0-5.5-5.5-5.5c-41.7,0-83.4,0-125.1,0c0,0,0,0.1,0,0.1c0,0,0-0.1,0-0.1
			c-10.5,0-21-0.1-31.4-0.1c-0.8,0-1.1,0.2-1.3,1.1c-0.3,1.7-0.1,3.3,0,4.9c0.3,4.7,2.3,8.7,5.4,12c4.4,4.9,10.2,7.1,16.8,7.1
			c10.3,0,20.6-0.1,30.9-0.1C102.8,114.2,111.3,114.2,119.8,114.2z M96.1,113.9c11.9,0,23.8,0,35.6,0c-1.5,0-2.9,0-4.4,0
			C116.9,113.9,106.5,113.9,96.1,113.9z M169.7,113.9c-0.1,0-0.1,0-0.2,0C169.6,113.9,169.6,113.9,169.7,113.9
			C169.7,113.9,169.7,113.9,169.7,113.9z M63.3,110.3c-5.8,0-10.3-1.9-13.8-5.8c-2.7-3-4.1-6.1-4.4-9.6c0-0.3,0-0.6-0.1-1
			c0-0.3,0-0.5-0.1-0.8c8.1,0,16.2,0.1,24.2,0.1c-0.1,3.8,1.1,7.7,3.4,11.8c1.1,1.9,2.4,3.7,3.8,5.2
			C72.2,110.3,67.7,110.3,63.3,110.3z"/>
  </g>
</svg>
