<?xml version="1.0" encoding="UTF-8"?>
<svg xmlns="http://www.w3.org/2000/svg" width="400" height="50" viewBox="0 0 400 50">
  <style type="text/css">
    .st0 { fill: none; }
  </style>
  <path
    class="st0" d="M243.4,28.2c0.8-1.9,1.6-3.7,2.2-5.5c0.5-1.5,1.1-3,1.7-4.5c1.9-5.1,4-10.1,5.7-15.2c0.2-0.6,0.5-0.9,1.2-0.9
    c3.1,0,6.2,0,9.3,0c0.8,0,0.9,0.2,1,1c0.4,4.3,0.7,8.6,1.1,12.9c0.1,1.4,0.2,2.9,0.6,4.3c0.3,1.2,0.2,2.6,0.3,3.9
    c0.2,2.4,0.3,4.9,0.6,7.3c0.2,1.3,0.2,2.6,0.4,3.9c0.3,2.6,0.4,5.2,0.6,7.8c0.1,1,0.4,2,0.3,3.1c-0.1,0.9-0.2,1.1-1.1,1.1
    c-2.6-0.1-5.3-0.1-7.9,0c-1,0-1.3-0.4-1.4-1.3c-0.1-2.7-0.2-5.5-0.6-8.2c-0.5-3.6-0.3-7.2-0.8-10.8c-0.3-2.1,0-4.2-0.7-6.3
    c-0.6,1.4-1.2,2.8-1.7,4.2c-1,3.3-2.2,6.5-3.4,9.8c-1.1,3.1-2.1,6.1-3.2,9.2c-0.3,0.9-0.7,1.7-0.9,2.5c-0.2,0.5-0.4,0.6-0.9,0.6
    c-1.6,0-3.2-0.1-4.8,0c-0.6,0-0.8-0.3-1-0.7c-1.1-3.1-2-6.3-3.1-9.4c-1.2-3.3-2.4-6.6-3.5-10c-0.6-1.7-1.2-3.3-1.8-4.9
    c-0.1-0.2,0.2-0.8-0.4-0.6c-0.3,0.1-0.5,0.4-0.4,0.8c0.1,0.9-0.2,1.7-0.2,2.5c-0.2,3.1-0.3,6.1-0.6,9.2c-0.4,3.5-0.4,7.1-1,10.5
    c-0.1,0.5-0.1,1.1,0,1.6c0.1,0.9-0.1,1.3-1.2,1.3c-2.7-0.1-5.4-0.1-8.1,0c-1.3,0.1-1.4-0.7-1-1.5c0.4-0.9,0.3-1.7,0.2-2.7
    c-0.1-1.4,0.2-2.8,0.3-4.1c0.1-2.3,0.6-4.6,0.8-6.9c0.4-4,0.6-8,1-12c0.2-2.4,0.4-4.8,0.6-7.2c0.2-2.2,0.2-4.4,0.6-6.5
    c0.2-1.1,0.2-2.1,0.1-3.2c0-0.8,0.2-1.2,1.1-1.2c3.2,0,6.4,0,9.6,0c0.4,0,0.7,0,0.9,0.6c2.7,7.1,5.5,14.3,8.2,21.4
    C242.3,25.5,242.8,26.8,243.4,28.2z"/>
  <path
    class="st0" d="M169.7,47.5c-4.2,0-8.1,0-11.9,0c-0.9,0-1.8-0.6-2.3-1.2c-2.3-2.8-4.4-5.7-6.6-8.6c-2-2.6-4-5.1-6.2-7.9
    c0,1,0,1.7,0,2.3c0,4.8,0,9.5,0,14.3c0,0.8-0.1,1.1-1,1.1c-2.8-0.1-5.6-0.1-8.3,0c-0.8,0-1.1-0.1-1.1-1c0-14.4,0-28.8,0-43.2
    c0-0.8,0.2-1.1,1.1-1.1c5.3,0,10.7-0.2,16,0.1c4.2,0.3,8.5,1.3,11.3,4.9c1.5,1.9,2.4,4.2,2.4,6.6c0,2.2,0.1,4.3-0.4,6.6
    c-0.8,3.1-2.6,5.2-5.1,6.8c-1,0.7-2.1,1.3-3.4,1.6C159.2,35,164.3,41.1,169.7,47.5z M142.8,16.4c0,1.6,0,3.3,0,4.9
    c0,0.8,0.2,1.2,1.1,1.1c1-0.1,2-0.1,3-0.2c3.1-0.4,5.1-1.2,5.6-4.8c0.4-2.5-0.5-5.4-3.5-6.3c-1.8-0.5-3.6-0.5-5.4-0.6
    c-0.7,0-0.8,0.4-0.8,0.9C142.8,13.1,142.8,14.7,142.8,16.4z"/>
  <path
    class="st0" d="M173.5,25.3c-0.1-6.2,2.1-11.2,5.9-15.4c5.3-5.9,12.1-8.7,19.9-8.3c4.4,0.2,8.8,1,12.7,3.4
    c0.7,0.4,0.9,0.8,0.5,1.6c-1.2,2.3-2.4,4.7-3.5,7c-0.3,0.6-0.5,0.8-1.2,0.4c-3.2-1.8-6.7-2.6-10.4-2.1c-6.1,0.8-9.8,3-12.1,9.4
    c-1.8,5,0.2,10.5,4.3,13.7c4.3,3.4,9.1,4.1,14.4,2.6c1.4-0.4,2.8-0.8,4.1-1.7c0.5-0.3,0.6-0.2,0.8,0.3c1.2,2.6,2.5,5.1,3.8,7.6
    c0.2,0.4,0.2,0.7-0.2,0.9c-2.2,1.2-4.4,2.3-6.9,2.9c-1.4,0.3-2.9,0.4-4.4,0.7c-1.9,0.5-4.1,0.5-6.1,0.1c-1.6-0.4-3.2-0.3-4.8-0.9
    c-3-1.2-5.7-2.7-8.2-4.7c-4.2-3.3-6.8-7.7-8.2-12.8C173.5,28.3,173.4,26.6,173.5,25.3z"/>
  <path
    class="st0" d="M120.1,1.5c0-1.1-0.3-1.3-1.4-1.3c-5.9,0-11.7,0-17.6,0c-0.5,0-1,0.1-1.5,0.1c0.5,0,1-0.1,1.5-0.1
    c-0.5,0-1-0.1-1.5-0.1c-8.5,0-17,0-25.5,0c-4.2,0-8.5,0-12.7,0c-14.3,0-28.6,0-42.8,0C13,0,7.4,0,1.8,0.1c0,0,0,0,0,0
    C1.6,0.1,1.3,0,1.1,0C0.8,0,0.6,0.1,0.6,0.6c0,1.4-0.2,2.9,0.2,4.3c0.9,2.8,2.5,5,4.9,6.6c3.4,2.3,7.3,3.2,11.3,3.2c1.5,0,3,0,4.4,0
    c4.8,0,9.6-0.1,14.4-0.1c21.2,0,42.4,0,63.6,0c0.4,0,0.9-0.1,1.3-0.1l0,0c6,0,12,0,18,0c1,0,1.3-0.2,1.3-1.3
    C120,9.4,120,5.4,120.1,1.5z M21.5,12.8c-1.5,0-2.9,0-4.4,0c-4-0.1-7.4-1-10.2-2.9c-2-1.4-3.4-3.2-4.1-5.6C2.6,3.6,2.6,2.9,2.6,2.1
    c4.9,0,9.9,0,14.8,0c-0.2,4.4,2.6,8.3,5.9,10.7C22.7,12.8,22.1,12.8,21.5,12.8z M99.3,14.6c0.5,0,1,0,1.5,0.1
    C100.3,14.6,99.8,14.6,99.3,14.6z"/>
  <path
    class="st0" d="M299.1,14.6c0.4,0,0.8,0.1,1.2,0.1c27.3,0,54.6,0.1,81.9,0.1c3.2,0,6.4-0.5,9.4-1.9c4.3-2,8.2-6,7.7-11.6
    c-0.1-1-0.2-1.3-1.3-1.3c0,0,0,0,0,0c-10.3,0.1-20.6,0.1-30.8,0.1c-22.3,0-44.6,0-66.9,0c-0.4,0-0.9,0-1.3,0.1c-0.1,0-0.1,0-0.2,0
    c-5.3,0-10.5,0-15.8,0c-0.9,0-1.2,0.3-1.2,1.2c0.1,3.9,0.1,7.9,0,11.8c0,1.2,0.3,1.4,1.4,1.4C288.5,14.6,293.8,14.6,299.1,14.6
     M390.8,11.1c-2.5,1.1-5.2,1.7-8.6,1.7c-1.3,0-2.6,0-3.9,0c0.8-0.6,1.6-1.3,2.4-2.1c2.3-2.3,3.4-5.2,3.5-8.6c4.4,0,8.8,0,13.2,0
    C397.5,7.6,392.4,10.4,390.8,11.1z"/>
  <path
    class="st0" d="M120.1,21.1c0-3.2,0-3.2-3.2-3.2c-24.4,0-48.8,0-73.3,0c-6.1,0-12.3,0-18.4-0.1c-0.5,0-0.7,0.1-0.8,0.6
    c-0.2,1-0.1,1.9,0,2.9c0.2,2.8,1.4,5.1,3.2,7.1c2.6,2.9,6,4.1,9.8,4.1c6,0,12.1-0.1,18.1-0.1c5,0,10,0,15,0c10,0,19.9,0,29.9,0
    c0.3,0,0.5,0,0.8-0.1c0,0,0,0,0,0c5.9,0,11.7-0.1,17.6,0c1.2,0,1.4-0.3,1.4-1.4C120,27.6,120.1,24.4,120.1,21.1z M37.3,30.5
    c-3.5,0-6.2-1.1-8.3-3.5c-1.6-1.8-2.5-3.7-2.6-5.8c0-0.2,0-0.4,0-0.6c0-0.3,0-0.6-0.1-0.8c5,0,9.9,0,14.9,0.1
    c-0.1,2.3,0.5,4.6,1.9,7.1c0.8,1.4,1.7,2.6,2.8,3.5C43,30.5,40.2,30.5,37.3,30.5z M56.3,32.3c7,0,14.1,0,21.1,0c-0.9,0-1.7,0-2.6,0
    C68.6,32.3,62.4,32.3,56.3,32.3z M99.6,32.3C99.6,32.3,99.6,32.3,99.6,32.3c-0.8,0-1.6,0-2.4,0C98,32.3,98.8,32.3,99.6,32.3z"/>
  <path
    class="st0" d="M120.1,36.8c0-0.9-0.2-1.2-1.2-1.2c-17.5,0-35.1,0-52.6,0c-6.1,0-12.1,0-18.2-0.1c-0.8,0-1,0.3-1,1.1
    c-0.1,3.6,0.6,7.1,2.8,10c1.6,2,3.6,3.5,6.4,3.5c0,0,0.1,0,0.1,0c10.5-0.1,21-0.1,31.5-0.1c4.4,0,8.7-0.1,13.1-0.1
    c0.1,0,0.1,0,0.2,0c5.9,0,11.8-0.1,17.7,0c1,0,1.3-0.3,1.3-1.3C120,44.6,120,40.7,120.1,36.8z M81.6,49.7c0,0-0.1,0-0.1,0
    C81.5,49.7,81.5,49.7,81.6,49.7z M56.3,48L56.3,48c-2,0-3.5-0.8-4.9-2.7c-1.6-2.1-2.4-4.6-2.4-7.8c5,0,10.1,0,15.1,0.1
    c0,4.1,1.1,7.5,3.4,10.4C63.8,47.9,60,48,56.3,48z"/>
  <path
    class="st0" d="M358.3,17.9c-25.1,0-50.3,0-75.4,0c-1,0-1.1,0.4-1.1,1.2c0,4,0.1,8,0,12c0,1.1,0.3,1.3,1.4,1.3
    c5.2,0,10.5,0,15.7,0c0.2,0,0.5,0.1,0.7,0.1c0,0,0,0,0.1,0c20.6,0,41.2,0.1,61.8,0.1c0.1,0,0.2,0,0.3,0c1.2,0,2.3,0,3.5-0.3
    c3.1-0.7,5.8-2,7.9-4.6c1.9-2.3,2.5-5,2.7-7.8c0-0.5,0.6-2.1-0.9-2.1c-1.1,0-2.1,0-3.2,0C367.2,17.8,362.8,17.8,358.3,17.9
     M299.7,32.3c0.2,0,0.4,0,0.6,0c0,0,0,0,0,0C300.1,32.3,299.9,32.3,299.7,32.3z M371.5,26.4c-1.7,2.1-3.8,3.3-6.7,3.9
    c-1,0.2-2.1,0.2-3.1,0.2h-0.1l-0.1,0c-1.9,0-3.7,0-5.6,0c2.6-2.3,4.1-5.2,4.5-8.7c0-0.2,0.1-0.4,0.1-0.6c0.1-0.4,0.1-0.9,0.2-1.3
    c0.9,0,1.9,0,2.8,0c2.7,0,5.5,0,8.2,0c0.7,0,1.4,0,2.1,0C373.5,22.7,372.8,24.7,371.5,26.4z"/>
  <path
    class="st0" d="M351.9,35.5c-5.4,0-10.8,0.1-16.2,0.1h-0.4c-17.4,0-34.9,0-52.3,0c-1,0-1.1,0.4-1.1,1.2c0,3.9,0.1,7.9,0,11.8
    c0,1,0.3,1.2,1.2,1.2c5.3,0,10.5,0,15.8,0c0,0,0,0,0,0v0c0.3,0,0.6,0.1,0.9,0.1c14.7,0,29.3,0,44,0.1c0,0,0,0,0,0c2,0,3.6-0.8,5-2.1
    c3.3-3.1,4.1-7.2,4.1-11.5C352.9,35.7,352.5,35.5,351.9,35.5z M347.4,46.5c-1.1,1.1-2.2,1.5-3.7,1.5c-3.2,0-6.4,0-9.6,0
    c0.2-0.3,0.4-0.5,0.6-0.8c2-2.6,3-5.8,2.9-9.6c4.4,0,8.8,0,13.2-0.1C350.8,41.5,349.7,44.3,347.4,46.5z"/>
</svg>
